PathFileType	4	(X/Y/Z)	OpenSim_Sub07_EMGBaseline_Gyro.trc
DataRate	CameraRate	NumFrames	NumMarkers	Units	OrigDataRate	OrigDataStartFrame	OrigNumFrames
100	100	37	8	m	100	3415	6828
Frame#	Time	torso_imu_offset_imu	pelvis_imu_offset_imu	tibia_r_imu_offset_imu	femur_r_imu_offset_imu	tibia_l_imu_offset_imu	femur_l_imu_offset_imu	toes_r_imu_offset_imu	toes_l_imu_offset_imu
				X1	Y1	Z1	X2	Y2	Z2	X3	Y3	Z3	X4	Y4	Z4	X5	Y5	Z5	X6	Y6	Z6	X7	Y7	Z7	X8		Y8	Z8	

3415	34.14000000	-0.48562200	0.02465500	0.12006200	0.49840700	-0.02346600	0.31250400	-0.59373800	-1.04248200	-0.59075600	0.91257900	0.12109000	-0.89746900	2.36370900	0.29297100	2.84756500	0.68463600	1.57007500	-2.11669800	0.07109200	-0.07712700	-0.06815700	1.10462100	-4.73247100	1.06423800
3416	34.15000000	-0.51876600	0.05054900	0.12463800	0.46218700	-0.03501500	0.30220500	-1.15583400	-1.10173700	-0.48738200	1.10745200	0.04014900	-0.85240100	2.96561700	0.23178600	2.64390200	1.01107400	1.45251300	-2.15188600	0.07342100	-0.07135300	-0.10035900	0.82523400	-4.68301300	1.37326000
3417	34.16000000	-0.53896700	0.07915700	0.13656100	0.42665700	-0.03292300	0.26135300	-1.28338200	-0.94202600	-0.43028900	1.22653200	-0.00592400	-0.91382000	3.36371600	0.13750600	2.30559400	1.31841600	1.32341700	-2.12606800	0.08148200	-0.06858700	-0.10170300	1.39076000	-4.33660200	1.57734700
3418	34.17000000	-0.55383900	0.09640100	0.13727900	0.40174500	-0.03490300	0.20345500	-0.98750400	-0.64818400	-0.45492000	1.13671000	-0.00522700	-0.98329100	3.37713000	0.08599900	1.81814800	1.55934900	1.19518200	-2.01403000	0.06730100	-0.04442800	-0.09147900	1.28906600	-4.18709800	2.27904700
3419	34.18000000	-0.56682200	0.09601300	0.14581500	0.35375800	-0.05100100	0.12093500	-0.56874300	-0.52577100	-0.52562800	0.95201800	0.02628200	-1.01586400	3.17787100	0.08248500	1.25308500	1.64760300	1.04836700	-1.83892500	0.04509000	-0.04787400	-0.08692200	1.76159300	-5.59206000	2.65360700
3420	34.19000000	-0.56718200	0.09315100	0.13729700	0.29446400	-0.04811600	0.03864700	-0.35767100	-0.57236900	-0.58107000	0.73619500	0.06027200	-1.01994200	2.86504500	0.08711800	0.72125300	1.43987600	0.89299300	-1.73911500	0.04210400	-0.06281100	-0.08745900	3.77202700	0.18201900	1.99125500
3421	34.20000000	-0.56227300	0.07642200	0.12507000	0.24581900	-0.05030100	-0.04418000	-0.19851600	-0.52873400	-0.61022700	0.51489100	0.08276700	-0.97702700	2.64804600	0.15178300	0.37462300	1.10757800	0.75545800	-1.73117400	0.02553000	-0.06396000	-0.09674900	2.71781300	3.03576900	1.88712900
3422	34.21000000	-0.55273100	0.06620500	0.11531400	0.19997400	-0.05384300	-0.13741300	0.24622900	-0.31412000	-0.56824500	0.36222600	0.09862800	-0.91932400	2.26384100	-0.00202000	0.27586000	0.87658100	0.69040800	-1.68041000	0.02810700	-0.06189800	-0.09846900	1.44920700	3.64315200	1.96339700
3423	34.22000000	-0.54257600	0.06994100	0.10212700	0.17786000	-0.06040600	-0.24614800	0.57798500	-0.16468600	-0.49148800	0.29553100	0.11749400	-0.89348500	1.76763600	-0.48592300	0.14424000	0.83382400	0.67371900	-1.59640700	0.02054100	-0.08124800	-0.10319700	0.35127400	4.36181800	1.90499600
3424	34.23000000	-0.52604500	0.08098200	0.09895100	0.17207400	-0.06997900	-0.34771000	0.61747700	-0.15825100	-0.45459100	0.20283100	0.14640700	-0.90347700	1.50626300	-0.97110200	-0.16931800	0.90145300	0.65109400	-1.54308100	0.01501200	-0.08437700	-0.09081700	0.34645400	3.62180600	1.75776500
3425	34.24000000	-0.51684500	0.08733900	0.08834100	0.16346900	-0.05914300	-0.43290400	0.46178600	-0.15009500	-0.41367400	0.04470900	0.15590200	-0.92070800	1.42192500	-1.27327700	-0.61403000	0.87733700	0.58458000	-1.57088000	0.00413400	-0.08585900	-0.09158200	0.12918200	3.31221800	1.40240800
3426	34.25000000	-0.50337500	0.08244900	0.07639100	0.15236000	-0.03901000	-0.48616400	0.03737800	-0.24001700	-0.38065100	-0.11311200	0.15379800	-0.92873000	1.33951000	-1.36838100	-1.11385900	0.66653200	0.48672900	-1.57943400	0.00111000	-0.09126200	-0.10891100	0.42231700	3.15635300	0.85221400
3427	34.26000000	-0.49661100	0.07574400	0.05610000	0.13757000	-0.00940400	-0.50847500	-0.42364000	-0.36263600	-0.36725400	-0.22351800	0.14807500	-0.93524600	1.06016000	-1.28477400	-1.55172100	0.35005000	0.37057600	-1.50076000	0.00676500	-0.11141400	-0.12547100	0.54604400	3.24762800	0.23416100
3428	34.27000000	-0.47548900	0.05979300	0.03639300	0.11446200	0.01390400	-0.50252700	-0.65780600	-0.42668100	-0.38217200	-0.28436100	0.15094600	-0.92311300	0.61697300	-1.13932300	-1.90529900	-0.00739800	0.27921000	-1.40357100	0.01294200	-0.07243600	-0.12205600	0.43980300	3.41438200	-0.34747500
3429	34.28000000	-0.46265500	0.06386200	0.01479500	0.08957700	0.03414100	-0.48035500	-0.55429300	-0.42562600	-0.37564000	-0.32401100	0.16658700	-0.87590700	0.04188000	-1.03796000	-2.18955800	-0.31737600	0.20418100	-1.30204900	-0.00667700	-0.06060000	-0.13614400	0.13584100	3.62678700	-0.83306900
3430	34.29000000	-0.44042500	0.06326700	0.00101400	0.06595800	0.04695000	-0.45523100	-0.31667300	-0.36510500	-0.35375700	-0.34933400	0.18205200	-0.83388200	-0.63705200	-1.00203200	-2.42952000	-0.57748700	0.15253900	-1.19281000	0.00315400	-0.06594400	-0.14667100	-0.21086700	3.81651100	-1.20057200
3431	34.30000000	-0.41405300	0.06504200	-0.01166600	0.04336300	0.05687300	-0.42180700	-0.14141700	-0.33712100	-0.32412600	-0.38201600	0.21011000	-0.82726900	-1.27830600	-1.01591800	-2.67625500	-0.76117100	0.10613600	-1.07286200	0.01326900	-0.08243500	-0.14335100	-0.45300800	3.98021700	-1.45655500
3432	34.31000000	-0.38004800	0.07384100	-0.02386900	0.03554300	0.07222600	-0.38839300	0.02492300	-0.27861100	-0.30109600	-0.41916000	0.24023600	-0.84166100	-1.95475000	-1.03336700	-2.94347200	-0.90766700	0.06354300	-0.93425100	0.00418800	-0.05597000	-0.12971300	-0.46319400	4.13584000	-1.64226300
3433	34.32000000	-0.33621900	0.08367600	-0.03220300	0.02918500	0.09024400	-0.34453900	0.13899900	-0.23104200	-0.32391200	-0.43114500	0.27325100	-0.86466700	-2.95250400	-0.99738400	-3.23555100	-1.02475300	0.01289300	-0.77135700	-0.00003800	-0.06224800	-0.12725100	-0.29849000	4.22655200	-1.78669900
3434	34.33000000	-0.29174300	0.09789200	-0.02800200	0.03714400	0.10745600	-0.31967200	0.13238500	-0.23001900	-0.33892800	-0.39477500	0.30990200	-0.88440200	-4.21626200	-0.90610400	-3.55614800	-1.14361700	-0.04400200	-0.63185600	-0.00073800	-0.06019500	-0.12639900	-0.03392200	4.27233900	-1.92407800
3435	34.34000000	-0.25608900	0.11064900	-0.02489000	0.05305900	0.13554200	-0.28440200	0.09302600	-0.21353100	-0.33053600	-0.30734700	0.34600700	-0.89875300	-5.01426100	-0.77929500	-3.82554200	-1.23720000	-0.11385500	-0.53520100	0.00601700	-0.06574400	-0.12471300	0.20297200	4.22209300	-2.06579600
3436	34.35000000	-0.21306700	0.11711000	-0.01972800	0.07072900	0.15981900	-0.26334100	-0.03536900	-0.25609900	-0.31243100	-0.20596200	0.36895500	-0.92408100	-4.79315400	-0.58292800	-4.00969400	-1.28643900	-0.16995600	-0.44086600	-0.01018600	-0.05595800	-0.10779600	0.24002700	3.98341100	-2.25114800
3437	34.36000000	-0.17598300	0.13416000	-0.02037600	0.08079400	0.17998000	-0.24808500	-0.10113000	-0.26888200	-0.33391200	-0.07666000	0.38742000	-0.94138300	-3.77078000	-0.36801900	-4.20194700	-1.24996500	-0.22612900	-0.31743500	-0.00846700	-0.06348900	-0.08863100	0.14163100	3.75443800	-2.42551000
3438	34.37000000	-0.14064000	0.13534600	-0.02119800	0.08959200	0.21185700	-0.22386200	-0.14077800	-0.28130400	-0.35277600	0.05246100	0.39406400	-0.96190000	-2.66248600	-0.39545800	-4.47934400	-1.12644900	-0.27845400	-0.21600800	-0.00796100	-0.07088600	-0.07502000	0.08038500	3.66186400	-2.47534800
3439	34.38000000	-0.10757400	0.13860400	-0.02040200	0.09450600	0.23677900	-0.19066100	-0.13329900	-0.28237700	-0.36078300	0.16587800	0.37569400	-0.96993600	-1.50464800	-0.61479600	-4.74088400	-0.96721100	-0.34021100	-0.19810000	0.00425100	-0.07027000	-0.07027500	0.13853100	3.77050000	-2.34156500
3440	34.39000000	-0.07909900	0.14605400	-0.01646400	0.08929100	0.25070600	-0.16773400	-0.08740100	-0.26834500	-0.38005700	0.26247600	0.33576700	-0.97473700	-0.43327600	-0.75958700	-4.87683200	-0.80863500	-0.38191500	-0.12203900	-0.00679100	-0.08412700	-0.06209000	0.31888500	3.87406800	-2.15509300
3441	34.40000000	-0.05143900	0.15303400	-0.00679400	0.09365100	0.25376500	-0.14415100	-0.00652300	-0.25230000	-0.41281200	0.32065800	0.30192200	-0.95958800	0.08157100	-0.76963700	-4.86343700	-0.72434800	-0.41176100	0.01004800	-0.00200200	-0.07451500	-0.04556500	0.56910600	3.97977800	-1.95622000
3442	34.41000000	-0.01699700	0.16620400	-0.00158600	0.09905800	0.24577300	-0.13158800	0.06898000	-0.22667800	-0.43051900	0.31586700	0.26751300	-0.93934400	0.54560900	-0.63633600	-4.74779900	-0.69614800	-0.44170200	0.14073400	-0.00915400	-0.06875200	-0.03968600	0.68525300	3.98315900	-1.68813900
3443	34.42000000	0.01677200	0.17148800	0.00680200	0.10771800	0.23682200	-0.12274300	0.10722000	-0.21304600	-0.44014100	0.26194900	0.24475100	-0.93378400	1.00105600	-0.44489000	-4.61288500	-0.65347200	-0.47698500	0.27115500	-0.00638100	-0.06987000	-0.04730900	0.89176300	3.89488500	-1.36094400
3444	34.43000000	0.05281000	0.16958000	0.01608400	0.10031800	0.21405600	-0.12205000	0.09473400	-0.20797700	-0.44389500	0.17884100	0.23927000	-0.94136700	1.28011700	-0.41618000	-4.55722900	-0.55315500	-0.47731400	0.40720100	-0.01138300	-0.09555200	-0.05476900	1.05151000	3.90854600	-1.06815800
3445	34.44000000	0.07661500	0.15972500	0.03036600	0.08102400	0.19579000	-0.12197900	0.05826600	-0.21964100	-0.45681500	0.08221300	0.23329900	-0.96180800	1.48737000	-0.58750900	-4.64099900	-0.40726900	-0.41447600	0.51118500	-0.01730900	-0.06750000	-0.05789300	1.18840800	4.07857400	-0.93930200
3446	34.45000000	0.09395000	0.15107900	0.02871600	0.06294000	0.17839300	-0.11848200	-0.00588400	-0.23003800	-0.48527100	-0.03505200	0.22384600	-0.99220600	1.56643000	-0.81664700	-4.72302400	-0.20013300	-0.38826000	0.60396100	-0.01849800	-0.07054500	-0.05211300	1.33619600	4.25950400	-0.94562400
3447	34.46000000	0.11162200	0.13815400	0.02789200	0.04144000	0.16124600	-0.11583500	-0.07588900	-0.24011200	-0.50837000	-0.16121200	0.19753800	-1.00845100	1.30699700	-1.05253200	-4.61020000	0.06335200	-0.42557100	0.69767700	-0.02725100	-0.08668000	-0.05652500	1.24557500	4.29336200	-1.05023000
3448	34.47000000	0.12342400	0.12892700	0.02923100	0.00735500	0.13869200	-0.11561800	-0.11012200	-0.24971000	-0.52843800	-0.28136300	0.16655100	-1.00441700	0.70270100	-1.15928700	-4.23535500	0.33928900	-0.41696900	0.81417900	-0.03047300	-0.10283200	-0.06210100	0.84173700	4.27595400	-1.22834000
3449	34.48000000	0.13828400	0.11921700	0.02583200	-0.02022200	0.10483300	-0.11340200	-0.10747400	-0.27027700	-0.56071700	-0.40354300	0.13783700	-0.98300800	-0.10900300	-1.00985600	-3.69207200	0.61725300	-0.29799000	0.95457800	-0.03679400	-0.10216900	-0.07268400	0.35061900	4.20770000	-1.47672900
3450	34.49000000	0.14596200	0.10321200	0.02036100	-0.04238800	0.08646300	-0.10760300	-0.09005800	-0.28693000	-0.61031900	-0.52144800	0.13017800	-0.95020800	-0.80126800	-0.74201100	-3.20296400	0.95804400	-0.12673500	1.07407500	-0.03488900	-0.12881800	-0.07728400	0.12902100	3.92884300	-1.75253800
3451	34.50000000	0.14538300	0.10002200	0.01036700	-0.05343400	0.08517300	-0.10941300	-0.10032200	-0.30317800	-0.64209100	-0.57041500	0.14098100	-0.88470700	-1.01044100	-0.71968700	-2.94433300	1.47223500	-0.14090700	0.97851000	-0.03505300	-0.14947100	-0.06951100	0.02990700	3.57819800	-2.01320000
